<svg xmlns="http://www.w3.org/2000/svg" viewBox="0 0 64 64">
  <defs>
    <linearGradient id="g" x1="0%" y1="0%" x2="100%" y2="100%">
      <stop offset="0%" stop-color="#0EA5E9"/>
      <stop offset="100%" stop-color="#0284C7"/>
    </linearGradient>
  </defs>
  <rect width="64" height="64" rx="14" fill="url(#g)"/>
  <path d="M32 12c-4.5 0-8 2-9.5 5.5C21 21 21 25 22 29c1 4 2.5 8 4 12 1 2.5 2 5 3.5 5h0c.8 0 1.5-1 2-2.5.3-1 .5-2 .5-2.5.0-.5.2-2.5.5-2.5s.5 2 .5 2.5c0 .5.2 1.5.5 2.5.5 1.5 1.2 2.5 2 2.5h0c1.5 0 2.5-2.5 3.5-5 1.5-4 3-8 4-12 1-4 1-8-.5-11.5C40 14 36.5 12 32 12z" fill="white"/>
</svg>
